<svg width="469" height="607" viewBox="0 0 469 607" fill="none" xmlns="http://www.w3.org/2000/svg">
<g opacity="0.3" clip-path="url(#clip0_1705_215)">
<path d="M-2.99366 246.282C-1.08204 246.282 0.451664 244.747 0.451664 242.834C0.451664 240.92 -1.08204 239.385 -2.99366 239.385H-32.0902C-71.3894 239.385 -103.242 207.499 -103.242 168.16V138.322C-103.242 136.475 -104.731 134.962 -106.599 134.962C-108.443 134.962 -109.955 136.453 -109.955 138.322V168.16C-109.955 207.499 -141.808 239.385 -181.107 239.385H-211.648C-213.56 239.385 -215.094 240.92 -215.094 242.834C-215.094 244.747 -213.56 246.282 -211.648 246.282H-181.107C-141.808 246.282 -109.955 278.168 -109.955 317.507V347.345C-109.955 349.192 -108.466 350.705 -106.599 350.705C-104.754 350.705 -103.242 349.215 -103.242 347.345V317.507C-103.242 278.168 -71.3894 246.282 -32.0902 246.282H-2.99366Z" stroke="#010101" stroke-width="0.75" stroke-miterlimit="10"/>
<path d="M-3.66138 476.221C-1.74977 476.221 -0.216061 474.686 -0.216061 472.772C-0.216061 470.859 -1.74977 469.323 -3.66138 469.323H-32.758C-72.0571 469.323 -103.91 437.438 -103.91 398.099V368.26C-103.91 366.413 -105.399 364.9 -107.266 364.9C-109.111 364.9 -110.623 366.391 -110.623 368.26V398.099C-110.623 437.438 -142.476 469.323 -181.775 469.323H-212.316C-214.228 469.323 -215.761 470.859 -215.761 472.772C-215.761 474.686 -214.228 476.221 -212.316 476.221H-181.775C-142.476 476.221 -110.623 508.106 -110.623 547.446V577.284C-110.623 579.131 -109.133 580.644 -107.266 580.644C-105.421 580.644 -103.91 579.153 -103.91 577.284V547.446C-103.91 508.106 -72.0571 476.221 -32.758 476.221H-3.66138Z" stroke="#010101" stroke-width="0.75" stroke-miterlimit="10"/>
<path d="M933.45 9.42279H904.354C865.054 9.42279 833.202 -22.4625 833.202 -61.8019V-91.6401C833.202 -93.487 831.712 -95 829.845 -95C827.978 -95 826.489 -93.5092 826.489 -91.6401V-61.8019C826.489 -22.4625 794.636 9.42279 755.337 9.42279H527.188C487.889 9.42279 456.036 -22.4625 456.036 -61.8019V-91.6401C456.036 -93.487 454.547 -95 452.68 -95C450.813 -95 449.323 -93.5092 449.323 -91.6401V-61.8019C449.323 -22.4625 417.471 9.42279 378.171 9.42279H347.63C345.719 9.42279 344.185 10.9581 344.185 12.8717C344.185 14.7852 345.719 16.3205 347.63 16.3205H378.171C417.471 16.3205 449.323 48.2059 449.323 87.5452V146.599C449.323 148.446 450.813 149.959 452.68 149.959C454.547 149.959 456.036 148.468 456.036 146.599V87.5452C456.036 48.2059 487.889 16.3205 527.188 16.3205H755.337C794.636 16.3205 826.489 48.2059 826.489 87.5452V117.383C826.489 119.23 827.978 120.743 829.845 120.743C831.712 120.743 833.202 119.253 833.202 117.383V87.5452C833.202 48.2059 865.054 16.3205 904.354 16.3205H933.45C935.362 16.3205 936.896 14.7852 936.896 12.8717C936.896 10.9581 935.362 9.42279 933.45 9.42279Z" stroke="#010101" stroke-width="0.75" stroke-miterlimit="10"/>
<path d="M326.225 16.3205C328.137 16.3205 329.671 14.7852 329.671 12.8717C329.671 10.9581 328.137 9.4228 326.225 9.4228H297.129C257.83 9.4228 225.977 -22.4625 225.977 -61.8019V-91.6401C225.977 -93.487 224.487 -95 222.62 -95C220.775 -95 219.264 -93.5092 219.264 -91.6401V-61.8019C219.264 -22.4625 187.411 9.4228 148.112 9.4228H117.571C115.659 9.4228 114.125 10.9581 114.125 12.8717C114.125 14.7852 115.659 16.3205 117.571 16.3205H148.112C187.411 16.3205 219.264 48.2059 219.264 87.5452V347.345C219.264 349.192 220.753 350.705 222.62 350.705C224.465 350.705 225.977 349.214 225.977 347.345V87.5452C225.977 48.2059 257.83 16.3205 297.129 16.3205H326.225Z" stroke="#010101" stroke-width="0.75" stroke-miterlimit="10"/>
<path d="M229.309 476.311C231.221 476.311 232.755 474.775 232.755 472.862C232.755 470.948 231.221 469.413 229.309 469.413H200.213C160.913 469.413 129.061 437.528 129.061 398.188V368.35C129.061 366.503 127.571 364.99 125.704 364.99C123.859 364.99 122.348 366.481 122.348 368.35V398.188C122.348 437.528 90.495 469.413 51.1959 469.413H20.6545C18.7429 469.413 17.2092 470.948 17.2092 472.862C17.2092 474.775 18.7429 476.311 20.6545 476.311H51.1959C90.495 476.311 122.348 508.196 122.348 547.535V577.374C122.348 579.221 123.837 580.734 125.704 580.734C127.549 580.734 129.061 579.243 129.061 577.374V547.535C129.061 508.196 160.913 476.311 200.213 476.311H229.309Z" stroke="#010101" stroke-width="0.75" stroke-miterlimit="10"/>
<path d="M461.371 476.132C463.283 476.132 464.817 474.597 464.817 472.683C464.817 470.77 463.283 469.234 461.371 469.234H432.275C392.975 469.234 361.123 437.349 361.123 398.01V368.171C361.123 366.325 359.633 364.812 357.766 364.812C355.921 364.812 354.41 366.302 354.41 368.171V398.01C354.41 437.349 322.557 469.234 283.258 469.234H252.716C250.805 469.234 249.271 470.77 249.271 472.683C249.271 474.597 250.805 476.132 252.716 476.132H283.258C322.557 476.132 354.41 508.017 354.41 547.357V577.195C354.41 579.042 355.899 580.555 357.766 580.555C359.611 580.555 361.123 579.064 361.123 577.195V547.357C361.123 508.017 392.975 476.132 432.275 476.132H461.371Z" stroke="#010101" stroke-width="0.75" stroke-miterlimit="10"/>
</g>
<defs>
<clipPath id="clip0_1705_215">
<rect width="1168" height="702" fill="white" transform="translate(0 -95)"/>
</clipPath>
</defs>
</svg>
